{"asset":{"version":"2.0","generator":"THREE.GLTFExporter"},"scenes":[{"nodes":[0],"name":"AuxScene"}],"scene":0,"nodes":[{"mesh":0}],"bufferViews":[{"buffer":0,"byteOffset":0,"byteLength":6660,"target":34962,"byteStride":12},{"buffer":0,"byteOffset":6660,"byteLength":6660,"target":34962,"byteStride":12}],"buffers":[{"byteLength":13320,"uri":"data:application/octet-stream;base64,"}],"accessors":[{"bufferView":0,"componentType":5126,"count":555,"max":[49.70000457763672,2.9000000953674316,49.70000457763672],"min":[-49.70000076293945,0.10000000149011612,-64.69999694824219],"type":"VEC3"},{"bufferView":1,"componentType":5126,"count":555,"max":[0.7427894473075867,1,0.5570948719978333],"min":[-0.6491867303848267,0.09477700293064117,-0.9902558922767639],"type":"VEC3"}],"materials":[{"pbrMetallicRoughness":{"baseColorFactor":[0.5019607843137255,0.5019607843137255,0.5019607843137255,1],"metallicFactor":0,"roughnessFactor":1}}],"meshes":[{"primitives":[{"mode":4,"attributes":{"POSITION":0,"NORMAL":1},"material":0}]}]}